name Walk6.mot
datacolumns 19
datarows 30
range 1.54500000 1.69000000
endheader

                time	   L_ground_force_vx	   L_ground_force_vy	   L_ground_force_vz	   L_ground_force_px	   L_ground_force_py	   L_ground_force_pz	   R_ground_force_vx	   R_ground_force_vy	   R_ground_force_vz	   R_ground_force_px	   R_ground_force_py	   R_ground_force_pz	   L_ground_torque_x	   L_ground_torque_y	   L_ground_torque_z	   R_ground_torque_x	   R_ground_torque_y	   R_ground_torque_z	
          1.54500000	          0.01816759	          0.04013643	         -0.00482364	         -0.00030599	          0.00000000	          0.00003463	        -10.79332003	        433.73793303	        -35.24212774	          0.23821452	          0.00000000	          0.12844594	          0.00000000	         -0.00030705	          0.00000000	          0.00000000	          6.80753644	          0.00000000	
          1.55000000	          0.01097267	          0.02189479	         -0.00325920	         -0.00023829	          0.00000000	          0.00002777	        -10.69284455	        426.60368212	        -34.55354375	          0.24263954	          0.00000000	          0.12874077	          0.00000000	         -0.00020103	          0.00000000	          0.00000000	          6.51782400	          0.00000000	
          1.55500000	          0.00549090	          0.00846517	         -0.00199820	         -0.00017603	          0.00000000	          0.00002117	        -10.48505610	        420.99365326	        -33.90159753	          0.24675911	          0.00000000	          0.12896355	          0.00000000	         -0.00011715	          0.00000000	          0.00000000	          6.25095231	          0.00000000	
          1.56000000	          0.00154128	         -0.00081648	         -0.00103150	         -0.00012218	          0.00000000	          0.00001527	        -10.14659172	        416.86968010	        -33.29239951	          0.25053958	          0.00000000	          0.12911279	          0.00000000	         -0.00005410	          0.00000000	          0.00000000	          6.00086233	          0.00000000	
          1.56500000	         -0.00111343	         -0.00670405	         -0.00033000	         -0.00007799	          0.00000000	          0.00001027	         -9.65927207	        414.16615867	        -32.73352739	          0.25396055	          0.00000000	          0.12918824	          0.00000000	         -0.00000938	          0.00000000	          0.00000000	          5.76173900	          0.00000000	
          1.57000000	         -0.00272779	         -0.00994942	          0.00014595	         -0.00004348	          0.00000000	          0.00000626	         -9.01014961	        412.79413415	        -32.23190503	          0.25701060	          0.00000000	          0.12919058	          0.00000000	          0.00002004	          0.00000000	          0.00000000	          5.52804325	          0.00000000	
          1.57500000	         -0.00354731	         -0.01124374	          0.00043963	         -0.00001791	          0.00000000	          0.00000319	         -8.19358106	        412.64873151	        -31.79289449	          0.25968839	          0.00000000	          0.12912330	          0.00000000	          0.00003732	          0.00000000	          0.00000000	          5.29482182	          0.00000000	
          1.58000000	         -0.00379230	         -0.01118452	          0.00059320	         -0.00000010	          0.00000000	          0.00000097	         -7.21168206	        413.61506293	        -31.41865542	          0.26200255	          0.00000000	          0.12899238	          0.00000000	          0.00004545	          0.00000000	          0.00000000	          5.05839491	          0.00000000	
          1.58500000	         -0.00364948	         -0.01026198	          0.00064476	          0.00001133	          0.00000000	         -0.00000053	         -6.07339668	        415.57179057	        -31.10494681	          0.26397110	          0.00000000	          0.12880368	          0.00000000	          0.00004707	          0.00000000	          0.00000000	          4.81639859	          0.00000000	
          1.59000000	         -0.00326927	         -0.00885877	          0.00062683	          0.00001777	          0.00000000	         -0.00000145	         -4.79286860	        418.39503216	        -30.83805264	          0.26562098	          0.00000000	          0.12856335	          0.00000000	          0.00004438	          0.00000000	          0.00000000	          4.56767811	          0.00000000	
          1.59500000	         -0.00276688	         -0.00725830	          0.00056576	          0.00002049	          0.00000000	         -0.00000193	         -3.38665939	        421.96601011	        -30.59633744	          0.26698688	          0.00000000	          0.12827849	          0.00000000	          0.00003915	          0.00000000	          0.00000000	          4.31199065	          0.00000000	
          1.60000000	         -0.00222589	         -0.00565791	          0.00048185	          0.00002061	          0.00000000	         -0.00000208	         -1.86960256	        426.17789902	        -30.35832988	          0.26810718	          0.00000000	          0.12795824	          0.00000000	          0.00003270	          0.00000000	          0.00000000	          4.04877120	          0.00000000	
          1.60500000	         -0.00170292	         -0.00418413	          0.00038993	          0.00001906	          0.00000000	         -0.00000201	         -0.25479801	        430.94146948	        -30.10949422	          0.26901982	          0.00000000	          0.12761306	          0.00000000	          0.00002598	          0.00000000	          0.00000000	          3.77714871	          0.00000000	
          1.61000000	         -0.00123287	         -0.00290812	          0.00030015	          0.00001656	          0.00000000	         -0.00000181	          1.44386855	        436.19008965	        -29.84308162	          0.26976091	          0.00000000	          0.12725264	          0.00000000	          0.00001961	          0.00000000	          0.00000000	          3.49631780	          0.00000000	
          1.61500000	         -0.00083393	         -0.00185984	          0.00021883	          0.00001365	          0.00000000	         -0.00000154	          3.21023548	        441.88148110	        -29.55698987	          0.27036527	          0.00000000	          0.12688629	          0.00000000	          0.00001398	          0.00000000	          0.00000000	          3.20593397	          0.00000000	
          1.62000000	         -0.00051214	         -0.00104050	          0.00014938	          0.00001070	          0.00000000	         -0.00000124	          5.02757370	        447.98822986	        -29.25149434	          0.27086677	          0.00000000	          0.12652095	          0.00000000	          0.00000926	          0.00000000	          0.00000000	          2.90647969	          0.00000000	
          1.62500000	         -0.00026528	         -0.00043279	          0.00009303	          0.00000796	          0.00000000	         -0.00000095	          6.88105032	        454.48794432	        -28.92889551	          0.27129512	          0.00000000	          0.12616093	          0.00000000	          0.00000550	          0.00000000	          0.00000000	          2.59911944	          0.00000000	
          1.63000000	         -0.00008599	         -0.00000884	          0.00004953	          0.00000558	          0.00000000	         -0.00000069	          8.75903728	        461.35650188	        -28.59241656	          0.27167433	          0.00000000	          0.12580879	          0.00000000	          0.00000266	          0.00000000	          0.00000000	          2.28480583	          0.00000000	
          1.63500000	          0.00003578	          0.00026372	          0.00001772	          0.00000361	          0.00000000	         -0.00000047	         10.65463292	        468.56341494	        -28.24576359	          0.27202269	          0.00000000	          0.12546669	          0.00000000	          0.00000062	          0.00000000	          0.00000000	          1.96393190	          0.00000000	
          1.64000000	          0.00011104	          0.00041766	         -0.00000408	          0.00000206	          0.00000000	         -0.00000029	         12.56545080	        476.07018277	        -27.89293984	          0.27235411	          0.00000000	          0.12513534	          0.00000000	         -0.00000073	          0.00000000	          0.00000000	          1.63639617	          0.00000000	
          1.64500000	          0.00015052	          0.00048334	         -0.00001774	          0.00000090	          0.00000000	         -0.00000015	         14.49081010	        483.83276333	        -27.53772309	          0.27268033	          0.00000000	          0.12481446	          0.00000000	         -0.00000154	          0.00000000	          0.00000000	          1.30138032	          0.00000000	
          1.65000000	          0.00016394	          0.00048723	         -0.00002509	          0.00000009	          0.00000000	         -0.00000005	         16.43042420	        491.79900180	        -27.18307513	          0.27300885	          0.00000000	          0.12450322	          0.00000000	         -0.00000194	          0.00000000	          0.00000000	          0.95794603	          0.00000000	
          1.65500000	          0.00015957	          0.00045120	         -0.00002782	         -0.00000044	          0.00000000	          0.00000002	         18.38300676	        499.90797730	        -26.83096268	          0.27334376	          0.00000000	          0.12419989	          0.00000000	         -0.00000204	          0.00000000	          0.00000000	          0.60529168	          0.00000000	
          1.66000000	          0.00014416	          0.00039240	         -0.00002738	         -0.00000074	          0.00000000	          0.00000006	         20.34631069	        508.09186367	        -26.48203276	          0.27368619	          0.00000000	          0.12390239	          0.00000000	         -0.00000195	          0.00000000	          0.00000000	          0.24273870	          0.00000000	
          1.66500000	          0.00012287	          0.00032367	         -0.00002492	         -0.00000088	          0.00000000	          0.00000008	         22.31878680	        516.27720131	        -26.13608178	          0.27403473	          0.00000000	          0.12361020	          0.00000000	         -0.00000173	          0.00000000	          0.00000000	         -0.13011116	          0.00000000	
          1.67000000	          0.00009950	          0.00025399	         -0.00002138	         -0.00000090	          0.00000000	          0.00000009	         24.30157644	        524.38737514	        -25.79228145	          0.27438617	          0.00000000	          0.12332460	          0.00000000	         -0.00000145	          0.00000000	          0.00000000	         -0.51370906	          0.00000000	
          1.67500000	          0.00007664	          0.00018922	         -0.00001742	         -0.00000084	          0.00000000	          0.00000009	         26.29820336	        532.34435150	        -25.44936170	          0.27473772	          0.00000000	          0.12304805	          0.00000000	         -0.00000116	          0.00000000	          0.00000000	         -0.90964887	          0.00000000	
          1.68000000	          0.00005592	          0.00013272	         -0.00001350	         -0.00000073	          0.00000000	          0.00000008	         28.31504770	        540.06636077	        -25.10550233	          0.27508736	          0.00000000	          0.12278279	          0.00000000	         -0.00000088	          0.00000000	          0.00000000	         -1.32075441	          0.00000000	
          1.68500000	          0.00003822	          0.00008599	         -0.00000992	         -0.00000061	          0.00000000	          0.00000007	         30.36124628	        547.46196309	        -24.75888538	          0.27543053	          0.00000000	          0.12252978	          0.00000000	         -0.00000064	          0.00000000	          0.00000000	         -1.75039568	          0.00000000	
          1.69000000	          0.00002384	          0.00004922	         -0.00000684	         -0.00000048	          0.00000000	          0.00000006	         32.44752063	        554.42804150	        -24.40832323	          0.27575973	          0.00000000	          0.12228924	          0.00000000	         -0.00000043	          0.00000000	          0.00000000	         -2.20205378	          0.00000000	
